<?xml version="1.0" encoding="UTF-8" standalone="no"?>
<svg
   width="255.7646003293856mm"
   height="195.65486677646163mm"
   viewBox="-127.882300 -97.827433 255.764600 195.654867"
   version="1.1"
   id="svg10"
   sodipodi:docname="balloon_racer_02-Body001_Unfold.svg"
   inkscape:version="1.4 (1:1.4+202410161351+e7c3feb100)"
   xmlns:inkscape="http://www.inkscape.org/namespaces/inkscape"
   xmlns:sodipodi="http://sodipodi.sourceforge.net/DTD/sodipodi-0.dtd"
   xmlns="http://www.w3.org/2000/svg"
   xmlns:svg="http://www.w3.org/2000/svg">
  <defs
     id="defs10" />
  <sodipodi:namedview
     id="namedview10"
     pagecolor="#ffffff"
     bordercolor="#999999"
     borderopacity="1"
     inkscape:showpageshadow="2"
     inkscape:pageopacity="0"
     inkscape:pagecheckerboard="0"
     inkscape:deskcolor="#d1d1d1"
     inkscape:document-units="mm"
     inkscape:zoom="0.86482517"
     inkscape:cx="483.33468"
     inkscape:cy="371.75144"
     inkscape:window-width="1920"
     inkscape:window-height="1011"
     inkscape:window-x="0"
     inkscape:window-y="0"
     inkscape:window-maximized="1"
     inkscape:current-layer="Unfold_Sketch" />
  <g
     id="Unfold_Sketch"
     transform="scale(1,-1)"
     style="fill:none;stroke:#ff0000;stroke-opacity:1;stroke-width:0.1;stroke-dasharray:none">
    <path
       id="Unfold_Sketch_w0000"
       d="M -99.48230016469279 -63.199999999999946 L -99.48230016469279 -63.799999999999955 L -101.08230016469278 -65.39999999999995 L -113.8823001646928 -65.39999999999995 L -115.48230016469279 -63.799999999999955 L -115.48230016469279 -63.19999999999995 L -113.4823001646928 -63.19999999999995 L -113.4823001646928 -59.99999999999995 L -122.98230016469279 -60.0 L -122.98230016469279 -50.15999999999491 L -125.68230016469279 -50.15999999999491 L -125.68230016469279 -52.15999999999491 L -126.28230016469278 -52.15999999999491 L -127.8823001646928 -50.559999999994915 L -127.8823001646928 -37.75999999999491 L -126.2823001646928 -36.15999999999491 L -125.68230016469279 -36.15999999999491 L -125.68230016469279 -38.1599999999949 L -122.98230016469279 -38.15999999999491 L -122.98230016469279 -20.719999999996183 L -125.68230016469279 -20.719999999996176 L -125.68230016469279 -22.719999999996183 L -126.2823001646928 -22.719999999996183 L -127.8823001646928 -21.119999999996182 L -127.8823001646928 -8.319999999996183 L -126.2823001646928 -6.719999999996183 L -125.68230016469279 -6.719999999996183 L -125.68230016469279 -8.719999999996174 L -122.98230016469279 -8.719999999996183 L -122.98230016469279 8.719999999996187 L -125.68230016469279 8.719999999996187 L -125.68230016469279 6.719999999996183 L -126.2823001646928 6.719999999996183 L -127.8823001646928 8.319999999996183 L -127.8823001646928 21.11999999999618 L -126.2823001646928 22.719999999996183 L -125.68230016469279 22.719999999996183 L -125.68230016469279 20.719999999996194 L -122.98230016469279 20.719999999996183 L -122.98230016469279 38.159999999991726 L -125.68230016469279 38.159999999991726 L -125.68230016469279 36.15999999999172 L -126.2823001646928 36.15999999999172 L -127.8823001646928 37.75999999999173 L -127.8823001646928 50.55999999999172 L -126.28230016469278 52.15999999999172 L -125.68230016469279 52.15999999999172 L -125.68230016469279 50.159999999991726 L -122.98230016469279 50.15999999999172 L -122.98230016469279 60.0 L -113.4823001646929 59.999999999999986 L -113.4823001646929 63.199999999999974 L -115.4823001646929 63.199999999999974 L -115.4823001646929 63.79999999999998 L -113.88230016469292 65.39999999999998 L -101.0823001646929 65.39999999999998 L -99.4823001646929 63.79999999999998 L -99.4823001646929 63.19999999999998 L -101.4823001646929 63.19999999999998 L -101.4823001646929 59.99999999999998 L -86.15486677646159 59.999999999999986 L -86.15486677646159 63.19999999999998 L -88.15486677646159 63.19999999999998 L -88.15486677646157 63.79999999999998 L -86.55486677646158 65.39999999999998 L -73.7548667764616 65.39999999999998 L -72.15486677646159 63.799999999999976 L -72.15486677646159 63.19999999999998 L -74.15486677646159 63.19999999999998 L -74.15486677646159 59.99999999999998 L -58.827433388230816 59.999999999999986 L -58.827433388230816 63.20000000000001 L -60.827433388230816 63.20000000000004 L -60.827433388230816 63.80000000000004 L -59.227433388230814 65.40000000000003 L -46.42743338823081 65.40000000000003 L -44.82743338823082 63.80000000000004 L -44.827433388230816 63.20000000000003 L -46.827433388230816 63.20000000000003 L -46.827433388230816 59.99999999999997 L -35.0 60.0 L -35.0 63.827433388230816 L -43.0 63.827433388230816 L -43.0 96.82743338823082 L -35.0 96.82743338823082 L -35.0 97.82743338823082 L 35.0 97.82743338823082 L 35.0 96.82743338823082 L 43.0 96.82743338823082 L 43.0 63.827433388230816 L 35.0 63.827433388230816 L 35.0 60.0 L 46.8274333883897 60.0 L 46.8274333883897 63.199999999999974 L 44.8274333883897 63.199999999999974 L 44.82743338838971 63.79999999999998 L 46.4274333883897 65.39999999999998 L 59.2274333883897 65.39999999999998 L 60.8274333883897 63.79999999999998 L 60.8274333883897 63.19999999999998 L 58.8274333883897 63.19999999999998 L 58.8274333883897 59.99999999999998 L 74.15486677646159 60.0 L 74.15486677646159 63.20000000000001 L 72.15486677646159 63.20000000000004 L 72.15486677646159 63.80000000000003 L 73.75486677646158 65.40000000000003 L 86.5548667764616 65.40000000000003 L 88.15486677646157 63.80000000000004 L 88.15486677646159 63.20000000000004 L 86.15486677646159 63.20000000000004 L 86.15486677646159 59.99999999999998 L 101.48230016469282 60.0 L 101.48230016469286 63.20000000000001 L 99.48230016469292 63.20000000000004 L 99.48230016469292 63.80000000000003 L 101.08230016469291 65.40000000000003 L 113.88230016469292 65.40000000000003 L 115.4823001646929 63.80000000000004 L 115.48230016469292 63.20000000000003 L 113.48230016469282 63.20000000000003 L 113.4823001646929 59.99999999999997 L 122.98230016469279 60.0 L 122.98230016469279 50.15999999999171 L 125.68230016469279 50.1599999999917 L 125.68230016469279 52.15999999999171 L 126.2823001646928 52.15999999999171 L 127.8823001646928 50.55999999999172 L 127.8823001646928 37.75999999999171 L 126.2823001646928 36.15999999999171 L 125.68230016469279 36.15999999999171 L 125.68230016469279 38.1599999999917 L 122.98230016469279 38.15999999999171 L 122.98230016469279 20.719999999996176 L 125.68230016469279 20.71999999999617 L 125.68230016469279 22.71999999999618 L 126.28230016469278 22.719999999996176 L 127.88230016469278 21.119999999996175 L 127.8823001646928 8.319999999996181 L 126.2823001646928 6.7199999999961815 L 125.68230016469279 6.7199999999961815 L 125.68230016469279 8.719999999996174 L 122.98230016469279 8.719999999996181 L 122.98230016469279 -8.719999999996176 L 125.68230016469279 -8.71999999999619 L 125.68230016469279 -6.71999999999618 L 126.2823001646928 -6.71999999999618 L 127.8823001646928 -8.319999999996181 L 127.8823001646928 -21.11999999999618 L 126.2823001646928 -22.71999999999618 L 125.68230016469279 -22.71999999999618 L 125.68230016469279 -20.71999999999619 L 122.98230016469279 -20.71999999999618 L 122.98230016469279 -38.159999999994895 L 125.68230016469279 -38.15999999999491 L 125.68230016469279 -36.159999999994895 L 126.2823001646928 -36.159999999994895 L 127.8823001646928 -37.759999999994896 L 127.8823001646928 -50.5599999999949 L 126.28230016469278 -52.1599999999949 L 125.68230016469279 -52.159999999994895 L 125.68230016469279 -50.1599999999949 L 122.98230016469279 -50.159999999994895 L 122.98230016469279 -60.0 L 113.48230016469279 -60.0 L 113.48230016469276 -63.199999999999974 L 115.4823001646928 -63.199999999999996 L 115.4823001646928 -63.8 L 113.8823001646928 -65.39999999999999 L 101.0823001646928 -65.39999999999999 L 99.48230016469279 -63.8 L 99.4823001646928 -63.19999999999999 L 101.4823001646927 -63.19999999999999 L 101.48230016469279 -59.99999999999994 L 86.15486677646159 -60.0 L 86.15486677646159 -63.199999999999946 L 88.15486677646159 -63.199999999999946 L 88.15486677646159 -63.799999999999955 L 86.55486677646158 -65.39999999999995 L 73.75486677646158 -65.39999999999995 L 72.15486677646159 -63.79999999999995 L 72.15486677646159 -63.199999999999946 L 74.15486677646159 -63.199999999999946 L 74.15486677646159 -59.99999999999994 L 58.82743338838974 -60.0 L 58.82743338838974 -63.199999999999946 L 60.82743338838974 -63.199999999999946 L 60.827433388389736 -63.799999999999955 L 59.22743338838974 -65.39999999999995 L 46.427433388389744 -65.39999999999995 L 44.82743338838975 -63.799999999999955 L 44.82743338838974 -63.19999999999995 L 46.82743338838974 -63.19999999999995 L 46.82743338838974 -59.99999999999995 L 35.0 -60.0 L 35.0 -63.827433388230816 L 43.0 -63.827433388230816 L 43.0 -96.82743338823082 L 35.0 -96.82743338823082 L 35.0 -97.82743338823082 L -35.0 -97.82743338823082 L -35.0 -96.82743338823082 L -43.0 -96.82743338823082 L -43.0 -63.827433388230816 L -35.0 -63.827433388230816 L -35.0 -60.0 L -46.827433388230816 -59.99999999999997 L -46.827433388230816 -63.199999999999974 L -44.827433388230816 -63.199999999999996 L -44.827433388230816 -63.8 L -46.427433388230824 -65.39999999999999 L -59.22743338823082 -65.39999999999999 L -60.827433388230816 -63.79999999999999 L -60.827433388230816 -63.19999999999999 L -58.827433388230816 -63.19999999999999 L -58.827433388230816 -59.99999999999994 L -74.15486677646159 -59.99999999999997 L -74.15486677646159 -63.199999999999946 L -72.15486677646159 -63.199999999999946 L -72.15486677646159 -63.79999999999994 L -73.7548667764616 -65.39999999999995 L -86.5548667764616 -65.39999999999995 L -88.15486677646159 -63.799999999999955 L -88.15486677646159 -63.199999999999946 L -86.15486677646159 -63.199999999999946 L -86.15486677646159 -59.99999999999994 L -101.48230016469279 -59.99999999999997 L -101.48230016469279 -63.199999999999946 L -99.48230016469279 -63.199999999999946 "
       stroke="#000080"
       stroke-width="0.7 px"
       style="stroke-width:0.1;stroke-miterlimit:4;stroke-dasharray:none;stroke-linecap:square;fill:none;fill-opacity:1;fill-rule:evenodd;stroke:#ff0000;stroke-opacity:1" />
    <path
       id="Unfold_Sketch_w0001"
       d="M 2.89999999997502 -38.0599999999949 L 2.89999999997502 -50.2599999999949 L 5.100000000024958 -50.2599999999949 L 5.100000000024958 -38.0599999999949 L 2.89999999997502 -38.0599999999949 "
       stroke="#000080"
       stroke-width="0.7 px"
       style="stroke-width:0.1;stroke-miterlimit:4;stroke-dasharray:none;stroke-linecap:square;fill:none;fill-opacity:1;fill-rule:evenodd;stroke:#ff0000;stroke-opacity:1" />
    <path
       id="Unfold_Sketch_w0002"
       d="M -5.099999999994996 -50.2599999999949 L -2.89999999997502 -50.2599999999949 L -2.89999999997502 -38.0599999999949 L -5.099999999994996 -38.0599999999949 L -5.099999999994996 -50.2599999999949 "
       stroke="#000080"
       stroke-width="0.7 px"
       style="stroke-width:0.1;stroke-miterlimit:4;stroke-dasharray:none;stroke-linecap:square;fill:none;fill-opacity:1;fill-rule:evenodd;stroke:#ff0000;stroke-opacity:1" />
    <path
       id="Unfold_Sketch_w0003"
       d="M -5.100000000024958 38.0599999999949 L -2.89999999997502 38.0599999999949 L -2.89999999997502 50.25999999998854 L -5.100000000024958 50.25999999998854 L -5.100000000024958 38.0599999999949 "
       stroke="#000080"
       stroke-width="0.7 px"
       style="stroke-width:0.1;stroke-miterlimit:4;stroke-dasharray:none;stroke-linecap:square;fill:none;fill-opacity:1;fill-rule:evenodd;stroke:#ff0000;stroke-opacity:1" />
    <path
       id="Unfold_Sketch_w0004"
       d="M 5.1 -83.92743338823084 L 5.1 -71.72743338823064 L 2.9 -71.72743338823064 L 2.9 -83.92743338823084 L 5.1 -83.92743338823084 "
       stroke="#000080"
       stroke-width="0.7 px"
       style="stroke-width:0.1;stroke-miterlimit:4;stroke-dasharray:none;stroke-linecap:square;fill:none;fill-opacity:1;fill-rule:evenodd;stroke:#ff0000;stroke-opacity:1" />
    <path
       id="Unfold_Sketch_w0005"
       d="M -5.1 -71.72743338823064 L -5.1 -83.92743338823084 L -2.9 -83.92743338823084 L -2.9 -71.72743338823064 L -5.1 -71.72743338823064 "
       stroke="#000080"
       stroke-width="0.7 px"
       style="stroke-width:0.1;stroke-miterlimit:4;stroke-dasharray:none;stroke-linecap:square;fill:none;fill-opacity:1;fill-rule:evenodd;stroke:#ff0000;stroke-opacity:1" />
    <path
       id="Unfold_Sketch_w0006"
       d="M -35.9 83.9274333882309 L -38.1 83.9274333882309 L -38.1 71.72743338823089 L -35.9 71.72743338823089 L -35.9 83.9274333882309 "
       stroke="#000080"
       stroke-width="0.7 px"
       style="stroke-width:0.1;stroke-miterlimit:4;stroke-dasharray:none;stroke-linecap:square;fill:none;fill-opacity:1;fill-rule:evenodd;stroke:#ff0000;stroke-opacity:1" />
    <path
       id="Unfold_Sketch_w0007"
       d="M -35.9 -83.92743338823084 L -35.9 -71.72743338823084 L -38.1 -71.72743338823084 L -38.1 -83.92743338823084 L -35.9 -83.92743338823084 "
       stroke="#000080"
       stroke-width="0.7 px"
       style="stroke-width:0.1;stroke-miterlimit:4;stroke-dasharray:none;stroke-linecap:square;fill:none;fill-opacity:1;fill-rule:evenodd;stroke:#ff0000;stroke-opacity:1" />
    <path
       id="Unfold_Sketch_w0008"
       d="M -14.400000000000027 77.22743338823076 L -14.400000000000027 79.42743338823078 L -26.600000000000026 79.42743338823077 L -26.600000000000026 77.22743338823076 L -14.400000000000027 77.22743338823076 "
       stroke="#000080"
       stroke-width="0.7 px"
       style="stroke-width:0.1;stroke-miterlimit:4;stroke-dasharray:none;stroke-linecap:square;fill:none;fill-opacity:1;fill-rule:evenodd;stroke:#ff0000;stroke-opacity:1" />
    <path
       id="Unfold_Sketch_w0009"
       d="M 26.600000000000026 77.22743338823076 L 26.600000000000026 79.42743338823078 L 14.400000000000027 79.42743338823077 L 14.400000000000027 77.22743338823076 L 26.600000000000026 77.22743338823076 "
       stroke="#000080"
       stroke-width="0.7 px"
       style="stroke-width:0.1;stroke-miterlimit:4;stroke-dasharray:none;stroke-linecap:square;fill:none;fill-opacity:1;fill-rule:evenodd;stroke:#ff0000;stroke-opacity:1" />
    <path
       id="Unfold_Sketch_w0010"
       d="M 26.600000000000026 -79.4274333882308 L 26.600000000000026 -77.22743338823079 L 14.400000000000027 -77.22743338823079 L 14.400000000000027 -79.4274333882308 L 26.600000000000026 -79.4274333882308 "
       stroke="#000080"
       stroke-width="0.7 px"
       style="stroke-width:0.1;stroke-miterlimit:4;stroke-dasharray:none;stroke-linecap:square;fill:none;fill-opacity:1;fill-rule:evenodd;stroke:#ff0000;stroke-opacity:1" />
    <path
       id="Unfold_Sketch_w0011"
       d="M -14.400000000000027 -79.4274333882308 L -14.400000000000027 -77.22743338823079 L -26.600000000000026 -77.22743338823079 L -26.600000000000026 -79.4274333882308 L -14.400000000000027 -79.4274333882308 "
       stroke="#000080"
       stroke-width="0.7 px"
       style="stroke-width:0.1;stroke-miterlimit:4;stroke-dasharray:none;stroke-linecap:square;fill:none;fill-opacity:1;fill-rule:evenodd;stroke:#ff0000;stroke-opacity:1" />
    <path
       id="Unfold_Sketch_w0012"
       d="M -5.099999999999989 8.619999999996182 L -2.8999999999999893 8.619999999996182 L -2.8999999999999893 20.81999999999618 L -5.099999999999989 20.81999999999618 L -5.099999999999989 8.619999999996182 "
       stroke="#000080"
       stroke-width="0.7 px"
       style="stroke-width:0.1;stroke-miterlimit:4;stroke-dasharray:none;stroke-linecap:square;fill:none;fill-opacity:1;fill-rule:evenodd;stroke:#ff0000;stroke-opacity:1" />
    <path
       id="Unfold_Sketch_w0013"
       d="M 2.8999999999999893 -20.81999999999618 L 5.099999999999989 -20.81999999999618 L 5.099999999999989 -8.619999999996182 L 2.8999999999999893 -8.619999999996182 L 2.8999999999999893 -20.81999999999618 "
       stroke="#000080"
       stroke-width="0.7 px"
       style="stroke-width:0.1;stroke-miterlimit:4;stroke-dasharray:none;stroke-linecap:square;fill:none;fill-opacity:1;fill-rule:evenodd;stroke:#ff0000;stroke-opacity:1" />
    <path
       id="Unfold_Sketch_w0014"
       d="M 5.100000000000008 83.9274333882309 L 2.900000000000007 83.9274333882309 L 2.900000000000007 71.7274333882309 L 5.100000000000008 71.7274333882309 L 5.100000000000008 83.9274333882309 "
       stroke="#000080"
       stroke-width="0.7 px"
       style="stroke-width:0.1;stroke-miterlimit:4;stroke-dasharray:none;stroke-linecap:square;fill:none;fill-opacity:1;fill-rule:evenodd;stroke:#ff0000;stroke-opacity:1" />
    <path
       id="Unfold_Sketch_w0015"
       d="M 38.1 -71.72743338838976 L 35.9 -71.72743338838974 L 35.9 -83.92743338838972 L 38.1 -83.92743338838973 L 38.1 -71.72743338838976 "
       stroke="#000080"
       stroke-width="0.7 px"
       style="stroke-width:0.1;stroke-miterlimit:4;stroke-dasharray:none;stroke-linecap:square;fill:none;fill-opacity:1;fill-rule:evenodd;stroke:#ff0000;stroke-opacity:1" />
    <path
       id="Unfold_Sketch_w0016"
       d="M -2.900000000000007 83.9274333882309 L -5.100000000000008 83.9274333882309 L -5.100000000000008 71.7274333882309 L -2.900000000000007 71.7274333882309 L -2.900000000000007 83.9274333882309 "
       stroke="#000080"
       stroke-width="0.7 px"
       style="stroke-width:0.1;stroke-miterlimit:4;stroke-dasharray:none;stroke-linecap:square;fill:none;fill-opacity:1;fill-rule:evenodd;stroke:#ff0000;stroke-opacity:1" />
    <path
       id="Unfold_Sketch_w0017"
       d="M -26.60000000000001 90.92743338823082 L -26.60000000000001 88.72743338823082 L -14.400000000000032 88.72743338823082 L -14.400000000000032 90.92743338823082 L -26.60000000000001 90.92743338823082 "
       stroke="#000080"
       stroke-width="0.7 px"
       style="stroke-width:0.1;stroke-miterlimit:4;stroke-dasharray:none;stroke-linecap:square;fill:none;fill-opacity:1;fill-rule:evenodd;stroke:#ff0000;stroke-opacity:1" />
    <path
       id="Unfold_Sketch_w0018"
       d="M -14.400000000000032 -88.72743338823085 L -26.60000000000001 -88.72743338823085 L -26.60000000000001 -90.92743338823085 L -14.400000000000032 -90.92743338823085 L -14.400000000000032 -88.72743338823085 "
       stroke="#000080"
       stroke-width="0.7 px"
       style="stroke-width:0.1;stroke-miterlimit:4;stroke-dasharray:none;stroke-linecap:square;fill:none;fill-opacity:1;fill-rule:evenodd;stroke:#ff0000;stroke-opacity:1" />
    <path
       id="Unfold_Sketch_w0019"
       d="M 14.400000000000032 90.92743338823082 L 14.400000000000032 88.72743338823082 L 26.60000000000001 88.72743338823082 L 26.60000000000001 90.92743338823082 L 14.400000000000032 90.92743338823082 "
       stroke="#000080"
       stroke-width="0.7 px"
       style="stroke-width:0.1;stroke-miterlimit:4;stroke-dasharray:none;stroke-linecap:square;fill:none;fill-opacity:1;fill-rule:evenodd;stroke:#ff0000;stroke-opacity:1" />
    <path
       id="Unfold_Sketch_w0020"
       d="M 35.9 83.9274333883897 L 35.9 71.72743338838973 L 38.1 71.72743338838973 L 38.1 83.9274333883897 L 35.9 83.9274333883897 "
       stroke="#000080"
       stroke-width="0.7 px"
       style="stroke-width:0.1;stroke-miterlimit:4;stroke-dasharray:none;stroke-linecap:square;fill:none;fill-opacity:1;fill-rule:evenodd;stroke:#ff0000;stroke-opacity:1" />
    <path
       id="Unfold_Sketch_w0021"
       d="M 26.60000000000001 -88.72743338823085 L 14.400000000000032 -88.72743338823085 L 14.400000000000032 -90.92743338823081 L 26.60000000000001 -90.92743338823081 L 26.60000000000001 -88.72743338823085 "
       stroke="#000080"
       stroke-width="0.7 px"
       style="stroke-width:0.1;stroke-miterlimit:4;stroke-dasharray:none;stroke-linecap:square;fill:none;fill-opacity:1;fill-rule:evenodd;stroke:#ff0000;stroke-opacity:1" />
    <path
       id="Unfold_Sketch_w0022"
       d="M -5.099999999990001 -20.81999999999618 L -2.8999999999999893 -20.81999999999618 L -2.8999999999999893 -8.619999999996182 L -5.099999999990001 -8.619999999996182 L -5.099999999990001 -20.81999999999618 "
       stroke="#000080"
       stroke-width="0.7 px"
       style="stroke-width:0.1;stroke-miterlimit:4;stroke-dasharray:none;stroke-linecap:square;fill:none;fill-opacity:1;fill-rule:evenodd;stroke:#ff0000;stroke-opacity:1" />
    <path
       id="Unfold_Sketch_w0023"
       d="M 2.8999999999999893 8.619999999996182 L 5.099999999990001 8.619999999996182 L 5.099999999990001 20.81999999999618 L 2.8999999999999893 20.81999999999618 L 2.8999999999999893 8.619999999996182 "
       stroke="#000080"
       stroke-width="0.7 px"
       style="stroke-width:0.1;stroke-miterlimit:4;stroke-dasharray:none;stroke-linecap:square;fill:none;fill-opacity:1;fill-rule:evenodd;stroke:#ff0000;stroke-opacity:1" />
    <path
       id="Unfold_Sketch_w0024"
       d="M 2.89999999997502 38.0599999999949 L 5.099999999994996 38.0599999999949 L 5.099999999994996 50.25999999998854 L 2.89999999997502 50.25999999998854 L 2.89999999997502 38.0599999999949 "
       stroke="#000080"
       stroke-width="0.7 px"
       style="stroke-width:0.1;stroke-miterlimit:4;stroke-dasharray:none;stroke-linecap:square;fill:none;fill-opacity:1;fill-rule:evenodd;stroke:#ff0000;stroke-opacity:1" />
    <path
       id="Unfold_Sketch_w0025"
       d="M -105.98230016468429 56.94999999999993 A 2.5 2.5 0 0 1 -108.482 54.45L -108.48230016468435 52.44999999999994 A 2.5 2.5 0 0 1 -105.982 49.95L -100.98230016468435 49.94999999999994 L -100.98230016469316 50.44999999999994 L -105.98231419043663 50.45000000004911 A 2 2 0 0 0 -107.982 52.45L -107.98230016468435 54.449999999999925 A 2 2 0 0 0 -105.982 56.45L -100.98230016468435 56.44999999999994 L -100.98230016469316 56.94999999999994 L -105.98230016468429 56.94999999999994 "
       stroke="#000080"
       stroke-width="0.7 px"
       style="stroke-width:0.1;stroke-miterlimit:4;stroke-dasharray:none;stroke-linecap:square;fill:none;fill-opacity:1;fill-rule:evenodd;stroke:#ff0000;stroke-opacity:1" />
    <path
       id="Unfold_Sketch_w0026"
       d="M 100.98230016468362 49.95000000000007 L 105.98230016468362 49.95000000000007 A 2.5 2.5 0 0 1 108.482 52.45L 108.48230016468362 54.45000000000007 A 2.5 2.5 0 0 1 105.982 56.95L 100.98230016468362 56.95000000000007 L 100.98230016468362 56.45000000000007 L 105.98230016468362 56.45000000000007 A 2 2 0 0 0 107.982 54.45L 107.98230016468362 52.45000000000007 A 2 2 0 0 0 105.982 50.45L 100.98230016468362 50.45000000004924 L 100.98230016468362 49.95000000000007 "
       stroke="#000080"
       stroke-width="0.7 px"
       style="stroke-width:0.1;stroke-miterlimit:4;stroke-dasharray:none;stroke-linecap:square;fill:none;fill-opacity:1;fill-rule:evenodd;stroke:#ff0000;stroke-opacity:1" />
    <path
       id="Unfold_Sketch_w0027"
       d="M 1.5205003922416905e-08 -62.82743338823081 A 2.9 2.9 0 0 1 -2.9 -65.7274A 2.9 2.9 0 1 1 1.5205e-08 -62.8274"
       stroke="#000080"
       stroke-width="0.7 px"
       style="stroke-width:0.1;stroke-miterlimit:4;stroke-dasharray:none;stroke-linecap:square;fill:none;fill-opacity:1;fill-rule:evenodd;stroke:#ff0000;stroke-opacity:1" />
    <path
       id="Unfold_Sketch_w0028"
       d="M 5.4913362747735595e-09 62.827433388230766 A 2.9 2.9 0 0 1 2.9 65.7274A 2.9 2.9 0 1 1 5.49134e-09 62.8274"
       stroke="#000080"
       stroke-width="0.7 px"
       style="stroke-width:0.1;stroke-miterlimit:4;stroke-dasharray:none;stroke-linecap:square;fill:none;fill-opacity:1;fill-rule:evenodd;stroke:#ff0000;stroke-opacity:1" />
    <circle
       cx="0.0"
       cy="-91.8274333882308"
       r="2.9"
       stroke="#000080"
       stroke-width="0.7 px"
       style="stroke-width:0.1;stroke-miterlimit:4;stroke-dasharray:none;stroke-linecap:square;fill:none;stroke:#ff0000;stroke-opacity:1"
       id="circle1" />
    <circle
       cx="0.0"
       cy="91.8274333882308"
       r="2.9"
       stroke="#000080"
       stroke-width="0.7 px"
       style="stroke-width:0.1;stroke-miterlimit:4;stroke-dasharray:none;stroke-linecap:square;fill:none;stroke:#ff0000;stroke-opacity:1"
       id="circle2" />
    <circle
       cx="115.4823001646928"
       cy="36.0"
       r="0.65"
       stroke="#000080"
       stroke-width="0.7 px"
       style="stroke-width:0.1;stroke-miterlimit:4;stroke-dasharray:none;stroke-linecap:square;fill:none;stroke:#ff0000;stroke-opacity:1"
       id="circle3" />
    <circle
       cx="-115.4823001646928"
       cy="-36.0"
       r="0.65"
       stroke="#000080"
       stroke-width="0.7 px"
       style="stroke-width:0.1;stroke-miterlimit:4;stroke-dasharray:none;stroke-linecap:square;fill:none;stroke:#ff0000;stroke-opacity:1"
       id="circle4" />
    <circle
       cx="-115.4823001646928"
       cy="36.0"
       r="0.65"
       stroke="#000080"
       stroke-width="0.7 px"
       style="stroke-width:0.1;stroke-miterlimit:4;stroke-dasharray:none;stroke-linecap:square;fill:none;stroke:#ff0000;stroke-opacity:1"
       id="circle5" />
    <circle
       cx="115.4823001646928"
       cy="-36.0"
       r="0.65"
       stroke="#000080"
       stroke-width="0.7 px"
       style="stroke-width:0.1;stroke-miterlimit:4;stroke-dasharray:none;stroke-linecap:square;fill:none;stroke:#ff0000;stroke-opacity:1"
       id="circle6" />
    <circle
       cx="44.82743338823081"
       cy="36.0"
       r="0.65"
       stroke="#000080"
       stroke-width="0.7 px"
       style="stroke-width:0.1;stroke-miterlimit:4;stroke-dasharray:none;stroke-linecap:square;fill:none;stroke:#ff0000;stroke-opacity:1"
       id="circle7" />
    <circle
       cx="44.82743338823081"
       cy="-36.0"
       r="0.65"
       stroke="#000080"
       stroke-width="0.7 px"
       style="stroke-width:0.1;stroke-miterlimit:4;stroke-dasharray:none;stroke-linecap:square;fill:none;stroke:#ff0000;stroke-opacity:1"
       id="circle8" />
    <circle
       cx="-44.82743338823081"
       cy="36.0"
       r="0.65"
       stroke="#000080"
       stroke-width="0.7 px"
       style="stroke-width:0.1;stroke-miterlimit:4;stroke-dasharray:none;stroke-linecap:square;fill:none;stroke:#ff0000;stroke-opacity:1"
       id="circle9" />
    <circle
       cx="-44.82743338823081"
       cy="-36.0"
       r="0.65"
       stroke="#000080"
       stroke-width="0.7 px"
       style="stroke-width:0.1;stroke-miterlimit:4;stroke-dasharray:none;stroke-linecap:square;fill:none;stroke:#ff0000;stroke-opacity:1"
       id="circle10" />
    <path
       id="Unfold_Sketch_w0039"
       d="M 96.06858347057704 -60.0 L 96.06858347057704 60.0 "
       stroke="#000080"
       stroke-width="0.7 px"
       style="stroke-width:0.1;stroke-miterlimit:4;stroke-dasharray:0.3,0.3;stroke-linecap:square;fill:none;fill-opacity:1;fill-rule:evenodd;stroke:#0000ff;stroke-opacity:1;stroke-dashoffset:0" />
    <path
       id="Unfold_Sketch_w0040"
       d="M 64.24115008234622 -60.0 L 64.24115008234622 60.0 "
       stroke="#000080"
       stroke-width="0.7 px"
       style="stroke-width:0.1;stroke-miterlimit:4;stroke-dasharray:0.3,0.3;stroke-linecap:square;fill:none;fill-opacity:1;fill-rule:evenodd;stroke:#0000ff;stroke-opacity:1;stroke-dashoffset:0" />
    <path
       id="Unfold_Sketch_w0041"
       d="M 36.41371669411541 -60.0 L 36.41371669411541 60.0 "
       stroke="#000080"
       stroke-width="0.7 px"
       style="stroke-width:0.1;stroke-miterlimit:4;stroke-dasharray:0.3,0.3;stroke-linecap:square;fill:none;fill-opacity:1;fill-rule:evenodd;stroke:#0000ff;stroke-opacity:1;stroke-dashoffset:0" />
    <path
       id="Unfold_Sketch_w0042"
       d="M 35.0 -61.41371669411541 L -35.0 -61.41371669411541 "
       stroke="#000080"
       stroke-width="0.7 px"
       style="stroke-width:0.1;stroke-miterlimit:4;stroke-dasharray:0.3,0.3;stroke-linecap:square;fill:none;fill-opacity:1;fill-rule:evenodd;stroke:#0000ff;stroke-opacity:1;stroke-dashoffset:0" />
    <path
       id="Unfold_Sketch_w0043"
       d="M 35.0 61.41371669411541 L -35.0 61.41371669411541 "
       stroke="#000080"
       stroke-width="0.7 px"
       style="stroke-width:0.1;stroke-miterlimit:4;stroke-dasharray:0.3,0.3;stroke-linecap:square;fill:none;fill-opacity:1;fill-rule:evenodd;stroke:#0000ff;stroke-opacity:1;stroke-dashoffset:0" />
    <path
       id="Unfold_Sketch_w0044"
       d="M -96.06858347057704 -60.0 L -96.06858347057704 60.0 "
       stroke="#000080"
       stroke-width="0.7 px"
       style="stroke-width:0.1;stroke-miterlimit:4;stroke-dasharray:0.3,0.3;stroke-linecap:square;fill:none;fill-opacity:1;fill-rule:evenodd;stroke:#0000ff;stroke-opacity:1;stroke-dashoffset:0" />
    <path
       id="Unfold_Sketch_w0045"
       d="M -64.24115008234622 -60.0 L -64.24115008234622 60.0 "
       stroke="#000080"
       stroke-width="0.7 px"
       style="stroke-width:0.1;stroke-miterlimit:4;stroke-dasharray:0.3,0.3;stroke-linecap:square;fill:none;fill-opacity:1;fill-rule:evenodd;stroke:#0000ff;stroke-opacity:1;stroke-dashoffset:0" />
    <path
       id="Unfold_Sketch_w0046"
       d="M -36.41371669411541 -60.0 L -36.41371669411541 60.0 "
       stroke="#000080"
       stroke-width="0.7 px"
       style="stroke-width:0.1;stroke-miterlimit:4;stroke-dasharray:0.3,0.3;stroke-linecap:square;fill:none;fill-opacity:1;fill-rule:evenodd;stroke:#0000ff;stroke-opacity:1;stroke-dashoffset:0" />
    <title
       id="title10">b'Unfold_Sketch'</title>
  </g>
</svg>
