<?xml version="1.0" encoding="UTF-8" standalone="no"?>
<svg
   width="255.76460032938556mm"
   height="199.65486677646163mm"
   viewBox="-127.882300 -99.827433 255.764600 199.654867"
   version="1.1"
   id="svg13"
   sodipodi:docname="balloon_racer_02-Body001_Unfold.svg"
   inkscape:version="1.4 (1:1.4+202410161351+e7c3feb100)"
   xmlns:inkscape="http://www.inkscape.org/namespaces/inkscape"
   xmlns:sodipodi="http://sodipodi.sourceforge.net/DTD/sodipodi-0.dtd"
   xmlns="http://www.w3.org/2000/svg"
   xmlns:svg="http://www.w3.org/2000/svg">
  <defs
     id="defs13" />
  <sodipodi:namedview
     id="namedview13"
     pagecolor="#ffffff"
     bordercolor="#999999"
     borderopacity="1"
     inkscape:showpageshadow="2"
     inkscape:pageopacity="0"
     inkscape:pagecheckerboard="0"
     inkscape:deskcolor="#d1d1d1"
     inkscape:document-units="mm"
     inkscape:zoom="1.0323336"
     inkscape:cx="482.88655"
     inkscape:cy="377.30053"
     inkscape:window-width="1920"
     inkscape:window-height="1011"
     inkscape:window-x="0"
     inkscape:window-y="0"
     inkscape:window-maximized="1"
     inkscape:current-layer="svg13" />
  <g
     id="Unfold_Sketch_Outline"
     transform="scale(1,-1)"
     style="stroke-width:0.2;stroke-dasharray:none">
    <path
       id="Unfold_Sketch_Outline_w0000"
       d="M -101.48230016469287 59.999999999999986 L -101.4823001646929 63.19999999999998 L -99.4823001646929 63.19999999999998 L -99.4823001646929 63.89999999999998 L -100.9823001646929 65.39999999999998 L -113.9823001646929 65.39999999999998 L -115.4823001646929 63.89999999999998 L -115.4823001646929 63.199999999999974 L -113.4823001646929 63.199999999999974 L -113.4823001646929 59.99999999999997 L -122.98230016469279 60.0 L -122.98230016469279 50.159999999991726 L -125.68230016469278 50.159999999991726 L -125.68230016469278 52.15999999999172 L -126.38230016469278 52.15999999999172 L -127.8823001646928 50.65999999999172 L -127.88230016469278 37.659999999991726 L -126.38230016469278 36.15999999999172 L -125.68230016469278 36.15999999999172 L -125.68230016469278 38.159999999991726 L -122.98230016469277 38.15999999999172 L -122.98230016469279 20.71999999999619 L -125.68230016469278 20.71999999999619 L -125.68230016469278 22.719999999996183 L -126.38230016469277 22.719999999996183 L -127.88230016469277 21.219999999996183 L -127.88230016469278 8.219999999996183 L -126.38230016469278 6.719999999996183 L -125.68230016469278 6.719999999996183 L -125.68230016469278 8.719999999996187 L -122.98230016469277 8.719999999996183 L -122.98230016469279 -8.719999999996183 L -125.68230016469278 -8.71999999999618 L -125.68230016469278 -6.719999999996183 L -126.38230016469278 -6.719999999996183 L -127.88230016469278 -8.219999999996183 L -127.88230016469277 -21.219999999996183 L -126.38230016469277 -22.719999999996183 L -125.68230016469278 -22.719999999996183 L -125.68230016469278 -20.719999999996176 L -122.98230016469277 -20.719999999996183 L -122.98230016469279 -38.15999999999491 L -125.68230016469278 -38.15999999999491 L -125.68230016469278 -36.15999999999491 L -126.3823001646928 -36.15999999999491 L -127.8823001646928 -37.65999999999491 L -127.88230016469277 -50.65999999999491 L -126.38230016469277 -52.15999999999491 L -125.68230016469278 -52.15999999999491 L -125.68230016469278 -50.15999999999491 L -122.98230016469277 -50.15999999999491 L -122.98230016469279 -60.0 L -113.48230016469279 -60.0 L -113.48230016469279 -63.19999999999995 L -115.48230016469279 -63.19999999999995 L -115.48230016469279 -63.89999999999995 L -113.98230016469279 -65.39999999999995 L -100.98230016469279 -65.39999999999995 L -99.48230016469279 -63.899999999999956 L -99.48230016469279 -63.199999999999946 L -101.48230016469279 -63.199999999999946 L -101.48230016469279 -59.99999999999994 L -86.15486677646159 -60.0 L -86.15486677646159 -63.199999999999946 L -88.15486677646159 -63.199999999999946 L -88.15486677646159 -63.89999999999995 L -86.65486677646159 -65.39999999999995 L -73.65486677646159 -65.39999999999995 L -72.15486677646159 -63.89999999999995 L -72.15486677646159 -63.199999999999946 L -74.15486677646159 -63.199999999999946 L -74.15486677646159 -59.99999999999994 L -58.827433388230816 -60.0 L -58.827433388230816 -63.19999999999997 L -60.827433388230816 -63.19999999999999 L -60.827433388230816 -63.89999999999999 L -59.327433388230816 -65.39999999999999 L -46.327433388230816 -65.39999999999999 L -44.827433388230816 -63.89999999999999 L -44.827433388230816 -63.199999999999996 L -46.827433388230816 -63.199999999999974 L -46.827433388230816 -59.99999999999995 L -35.0 -60.0 L -35.0 -63.827433388230816 L -43.0 -63.827433388230816 L -43.0 -98.82743338823082 L -35.0 -98.82743338823082 L -35.0 -99.82743338823082 L 35.0 -99.82743338823082 L 35.0 -98.82743338823082 L 43.0 -98.82743338823082 L 43.0 -63.827433388230816 L 35.0 -63.827433388230816 L 35.0 -60.0 L 46.82743338838974 -59.99999999999997 L 46.82743338838974 -63.19999999999995 L 44.82743338838974 -63.19999999999995 L 44.82743338838974 -63.89999999999995 L 46.32743338838975 -65.39999999999995 L 59.32743338838974 -65.39999999999995 L 60.82743338838975 -63.89999999999995 L 60.82743338838974 -63.199999999999946 L 58.82743338838974 -63.199999999999946 L 58.82743338838974 -59.99999999999994 L 74.15486677646159 -59.99999999999997 L 74.15486677646159 -63.199999999999946 L 72.15486677646159 -63.199999999999946 L 72.15486677646159 -63.89999999999995 L 73.65486677646159 -65.39999999999995 L 86.65486677646159 -65.39999999999995 L 88.15486677646157 -63.89999999999995 L 88.15486677646159 -63.199999999999946 L 86.15486677646159 -63.199999999999946 L 86.15486677646159 -59.99999999999994 L 101.48230016469272 -59.99999999999997 L 101.48230016469272 -63.19999999999997 L 99.48230016469276 -63.19999999999999 L 99.48230016469276 -63.89999999999999 L 100.98230016469276 -65.4 L 113.98230016469277 -65.39999999999999 L 115.48230016469276 -63.89999999999999 L 115.48230016469276 -63.199999999999996 L 113.48230016469272 -63.199999999999974 L 113.48230016469277 -59.99999999999995 L 122.98230016469276 -60.0 L 122.98230016469276 -50.159999999994895 L 125.68230016469276 -50.1599999999949 L 125.68230016469276 -52.159999999994895 L 126.38230016469277 -52.159999999994895 L 127.88230016469277 -50.659999999994895 L 127.88230016469277 -37.659999999994895 L 126.38230016469277 -36.159999999994895 L 125.68230016469276 -36.159999999994895 L 125.68230016469276 -38.159999999994916 L 122.98230016469276 -38.159999999994895 L 122.98230016469276 -20.719999999996176 L 125.68230016469276 -20.71999999999619 L 125.68230016469276 -22.71999999999618 L 126.38230016469277 -22.71999999999618 L 127.88230016469277 -21.21999999999618 L 127.88230016469277 -8.21999999999618 L 126.38230016469277 -6.71999999999618 L 125.68230016469276 -6.71999999999618 L 125.68230016469276 -8.7199999999962 L 122.98230016469276 -8.71999999999618 L 122.98230016469276 8.71999999999618 L 125.68230016469276 8.719999999996174 L 125.68230016469276 6.7199999999961815 L 126.38230016469277 6.7199999999961815 L 127.88230016469277 8.219999999996181 L 127.88230016469277 21.21999999999618 L 126.38230016469275 22.71999999999618 L 125.68230016469276 22.71999999999618 L 125.68230016469276 20.71999999999616 L 122.98230016469276 20.71999999999618 L 122.98230016469276 38.15999999999171 L 125.68230016469276 38.1599999999917 L 125.68230016469276 36.15999999999171 L 126.38230016469277 36.15999999999171 L 127.88230016469277 37.65999999999171 L 127.88230016469277 50.659999999991705 L 126.38230016469278 52.15999999999171 L 125.68230016469276 52.15999999999171 L 125.68230016469276 50.15999999999169 L 122.98230016469276 50.15999999999171 L 122.98230016469276 60.0 L 113.48230016469287 59.999999999999986 L 113.48230016469283 63.2 L 115.48230016469287 63.20000000000003 L 115.48230016469287 63.900000000000034 L 113.98230016469287 65.40000000000003 L 100.98230016469287 65.40000000000003 L 99.48230016469289 63.90000000000004 L 99.48230016469287 63.20000000000004 L 101.48230016469283 63.2 L 101.48230016469289 59.99999999999998 L 86.15486677646159 59.999999999999986 L 86.15486677646159 63.20000000000001 L 88.15486677646159 63.20000000000004 L 88.15486677646159 63.900000000000034 L 86.65486677646159 65.40000000000003 L 73.65486677646159 65.40000000000003 L 72.15486677646157 63.900000000000034 L 72.15486677646159 63.20000000000004 L 74.15486677646159 63.20000000000001 L 74.15486677646159 59.99999999999998 L 58.8274333883897 59.999999999999986 L 58.8274333883897 63.19999999999998 L 60.8274333883897 63.19999999999998 L 60.8274333883897 63.89999999999998 L 59.3274333883897 65.39999999999998 L 46.3274333883897 65.39999999999998 L 44.82743338838969 63.89999999999998 L 44.8274333883897 63.199999999999974 L 46.8274333883897 63.199999999999974 L 46.8274333883897 59.99999999999997 L 35.0 60.0 L 35.0 63.827433388230816 L 43.0 63.827433388230816 L 43.0 98.82743338823082 L 35.0 98.82743338823082 L 35.0 99.82743338823082 L -35.0 99.82743338823082 L -35.0 98.82743338823082 L -43.0 98.82743338823082 L -43.0 63.827433388230816 L -35.0 63.827433388230816 L -35.0 60.0 L -46.827433388230816 60.0 L -46.827433388230816 63.2 L -44.827433388230816 63.20000000000003 L -44.827433388230816 63.900000000000034 L -46.327433388230816 65.40000000000003 L -59.32743338823082 65.40000000000003 L -60.82743338823083 63.900000000000034 L -60.827433388230816 63.20000000000004 L -58.827433388230816 63.20000000000001 L -58.827433388230816 59.99999999999998 L -74.15486677646159 60.0 L -74.15486677646159 63.19999999999998 L -72.15486677646159 63.19999999999998 L -72.15486677646159 63.89999999999998 L -73.65486677646159 65.39999999999998 L -86.65486677646159 65.39999999999998 L -88.15486677646159 63.89999999999998 L -88.15486677646159 63.19999999999998 L -86.15486677646159 63.19999999999998 L -86.15486677646159 59.99999999999998 L -101.48230016469283 60.0 "
       stroke="#000080"
       stroke-width="0.7 px"
       style="stroke-width:0.2;stroke-miterlimit:4;stroke-dasharray:none;stroke-linecap:square;fill:none;fill-opacity:1;fill-rule:evenodd" />
    <title
       id="title1">b'Unfold_Sketch_Outline'</title>
  </g>
  <g
     id="Unfold_Sketch_Internal"
     transform="scale(1,-1)"
     style="stroke-width:0.2;stroke-dasharray:none">
    <path
       id="Unfold_Sketch_Internal_w0000"
       d="M -97.48230016469279 -9.999999999941423 L -87.65486677640305 -9.999999999941434 L -87.65486677640305 -20.0 L -97.48230016469279 -20.0 L -97.48230016469277 -19.500000000000014 L -88.48230016469276 -19.50000000000001 L -88.48230016469276 -10.499999999941434 L -97.48230016469276 -10.499999999941434 L -97.48230016469279 -9.999999999941423 "
       stroke="#ff5733"
       stroke-width="0.7 px"
       style="stroke-width:0.2;stroke-miterlimit:4;stroke-dasharray:none;stroke-linecap:square;fill:none;fill-opacity:1;fill-rule:evenodd" />
    <path
       id="Unfold_Sketch_Internal_w0001"
       d="M 97.48230016469276 -10.0 L 87.65486677646163 -10.0 L 87.65486677646163 -19.999999999999986 L 97.48230016469276 -20.0 L 97.48230016469276 -19.5 L 88.48230016469276 -19.5 L 88.48230016469276 -10.5 L 97.48230016469276 -10.5 L 97.48230016469276 -10.0 "
       stroke="#ff5733"
       stroke-width="0.7 px"
       style="stroke-width:0.2;stroke-miterlimit:4;stroke-dasharray:none;stroke-linecap:square;fill:none;fill-opacity:1;fill-rule:evenodd" />
    <path
       id="Unfold_Sketch_Internal_w0002"
       d="M 2.89999999997502 -38.0599999999949 L 2.89999999997502 -50.2599999999949 L 5.100000000024958 -50.2599999999949 L 5.100000000024958 -38.0599999999949 L 2.89999999997502 -38.0599999999949 "
       stroke="#ff5733"
       stroke-width="0.7 px"
       style="stroke-width:0.2;stroke-miterlimit:4;stroke-dasharray:none;stroke-linecap:square;fill:none;fill-opacity:1;fill-rule:evenodd" />
    <path
       id="Unfold_Sketch_Internal_w0003"
       d="M -5.099999999994996 -50.2599999999949 L -2.89999999997502 -50.2599999999949 L -2.89999999997502 -38.0599999999949 L -5.099999999994996 -38.0599999999949 L -5.099999999994996 -50.2599999999949 "
       stroke="#ff5733"
       stroke-width="0.7 px"
       style="stroke-width:0.2;stroke-miterlimit:4;stroke-dasharray:none;stroke-linecap:square;fill:none;fill-opacity:1;fill-rule:evenodd" />
    <path
       id="Unfold_Sketch_Internal_w0004"
       d="M -5.100000000024958 38.0599999999949 L -2.89999999997502 38.0599999999949 L -2.89999999997502 50.25999999998854 L -5.100000000024958 50.25999999998854 L -5.100000000024958 38.0599999999949 "
       stroke="#ff5733"
       stroke-width="0.7 px"
       style="stroke-width:0.2;stroke-miterlimit:4;stroke-dasharray:none;stroke-linecap:square;fill:none;fill-opacity:1;fill-rule:evenodd" />
    <path
       id="Unfold_Sketch_Internal_w0005"
       d="M 5.1 -83.92743338823084 L 5.1 -71.72743338823064 L 2.9 -71.72743338823064 L 2.9 -83.92743338823084 L 5.1 -83.92743338823084 "
       stroke="#ff5733"
       stroke-width="0.7 px"
       style="stroke-width:0.2;stroke-miterlimit:4;stroke-dasharray:none;stroke-linecap:square;fill:none;fill-opacity:1;fill-rule:evenodd" />
    <path
       id="Unfold_Sketch_Internal_w0006"
       d="M -5.1 -71.72743338823064 L -5.1 -83.92743338823084 L -2.9 -83.92743338823084 L -2.9 -71.72743338823064 L -5.1 -71.72743338823064 "
       stroke="#ff5733"
       stroke-width="0.7 px"
       style="stroke-width:0.2;stroke-miterlimit:4;stroke-dasharray:none;stroke-linecap:square;fill:none;fill-opacity:1;fill-rule:evenodd" />
    <path
       id="Unfold_Sketch_Internal_w0007"
       d="M 26.600000000000026 77.22743338823076 L 26.600000000000026 79.42743338823078 L 14.400000000000027 79.42743338823077 L 14.400000000000027 77.22743338823076 L 26.600000000000026 77.22743338823076 "
       stroke="#ff5733"
       stroke-width="0.7 px"
       style="stroke-width:0.2;stroke-miterlimit:4;stroke-dasharray:none;stroke-linecap:square;fill:none;fill-opacity:1;fill-rule:evenodd" />
    <path
       id="Unfold_Sketch_Internal_w0008"
       d="M -14.400000000000027 77.22743338823076 L -14.400000000000027 79.42743338823078 L -26.600000000000026 79.42743338823077 L -26.600000000000026 77.22743338823076 L -14.400000000000027 77.22743338823076 "
       stroke="#ff5733"
       stroke-width="0.7 px"
       style="stroke-width:0.2;stroke-miterlimit:4;stroke-dasharray:none;stroke-linecap:square;fill:none;fill-opacity:1;fill-rule:evenodd" />
    <path
       id="Unfold_Sketch_Internal_w0009"
       d="M -35.9 -83.92743338823084 L -35.9 -71.72743338823084 L -38.1 -71.72743338823084 L -38.1 -83.92743338823084 L -35.9 -83.92743338823084 "
       stroke="#ff5733"
       stroke-width="0.7 px"
       style="stroke-width:0.2;stroke-miterlimit:4;stroke-dasharray:none;stroke-linecap:square;fill:none;fill-opacity:1;fill-rule:evenodd" />
    <path
       id="Unfold_Sketch_Internal_w0010"
       d="M -35.9 83.9274333882309 L -38.1 83.9274333882309 L -38.1 71.72743338823089 L -35.9 71.72743338823089 L -35.9 83.9274333882309 "
       stroke="#ff5733"
       stroke-width="0.7 px"
       style="stroke-width:0.2;stroke-miterlimit:4;stroke-dasharray:none;stroke-linecap:square;fill:none;fill-opacity:1;fill-rule:evenodd" />
    <path
       id="Unfold_Sketch_Internal_w0011"
       d="M -5.099999999999989 8.619999999996182 L -2.8999999999999893 8.619999999996182 L -2.8999999999999893 20.81999999999618 L -5.099999999999989 20.81999999999618 L -5.099999999999989 8.619999999996182 "
       stroke="#ff5733"
       stroke-width="0.7 px"
       style="stroke-width:0.2;stroke-miterlimit:4;stroke-dasharray:none;stroke-linecap:square;fill:none;fill-opacity:1;fill-rule:evenodd" />
    <path
       id="Unfold_Sketch_Internal_w0012"
       d="M 2.8999999999999893 -20.81999999999618 L 5.099999999999989 -20.81999999999618 L 5.099999999999989 -8.619999999996182 L 2.8999999999999893 -8.619999999996182 L 2.8999999999999893 -20.81999999999618 "
       stroke="#ff5733"
       stroke-width="0.7 px"
       style="stroke-width:0.2;stroke-miterlimit:4;stroke-dasharray:none;stroke-linecap:square;fill:none;fill-opacity:1;fill-rule:evenodd" />
    <path
       id="Unfold_Sketch_Internal_w0013"
       d="M -14.400000000000027 -79.4274333882308 L -14.400000000000027 -77.22743338823079 L -26.600000000000026 -77.22743338823079 L -26.600000000000026 -79.4274333882308 L -14.400000000000027 -79.4274333882308 "
       stroke="#ff5733"
       stroke-width="0.7 px"
       style="stroke-width:0.2;stroke-miterlimit:4;stroke-dasharray:none;stroke-linecap:square;fill:none;fill-opacity:1;fill-rule:evenodd" />
    <path
       id="Unfold_Sketch_Internal_w0014"
       d="M 26.600000000000026 -79.4274333882308 L 26.600000000000026 -77.22743338823079 L 14.400000000000027 -77.22743338823079 L 14.400000000000027 -79.4274333882308 L 26.600000000000026 -79.4274333882308 "
       stroke="#ff5733"
       stroke-width="0.7 px"
       style="stroke-width:0.2;stroke-miterlimit:4;stroke-dasharray:none;stroke-linecap:square;fill:none;fill-opacity:1;fill-rule:evenodd" />
    <path
       id="Unfold_Sketch_Internal_w0015"
       d="M 38.1 -71.72743338838976 L 35.9 -71.72743338838974 L 35.9 -83.92743338838972 L 38.1 -83.92743338838973 L 38.1 -71.72743338838976 "
       stroke="#ff5733"
       stroke-width="0.7 px"
       style="stroke-width:0.2;stroke-miterlimit:4;stroke-dasharray:none;stroke-linecap:square;fill:none;fill-opacity:1;fill-rule:evenodd" />
    <path
       id="Unfold_Sketch_Internal_w0016"
       d="M 5.100000000000008 83.9274333882309 L 2.900000000000007 83.9274333882309 L 2.900000000000007 71.7274333882309 L 5.100000000000008 71.7274333882309 L 5.100000000000008 83.9274333882309 "
       stroke="#ff5733"
       stroke-width="0.7 px"
       style="stroke-width:0.2;stroke-miterlimit:4;stroke-dasharray:none;stroke-linecap:square;fill:none;fill-opacity:1;fill-rule:evenodd" />
    <path
       id="Unfold_Sketch_Internal_w0017"
       d="M -2.900000000000007 83.9274333882309 L -5.100000000000008 83.9274333882309 L -5.100000000000008 71.7274333882309 L -2.900000000000007 71.7274333882309 L -2.900000000000007 83.9274333882309 "
       stroke="#ff5733"
       stroke-width="0.7 px"
       style="stroke-width:0.2;stroke-miterlimit:4;stroke-dasharray:none;stroke-linecap:square;fill:none;fill-opacity:1;fill-rule:evenodd" />
    <path
       id="Unfold_Sketch_Internal_w0018"
       d="M -14.400000000000032 -88.72743338823085 L -26.60000000000001 -88.72743338823085 L -26.60000000000001 -90.92743338823085 L -14.400000000000032 -90.92743338823085 L -14.400000000000032 -88.72743338823085 "
       stroke="#ff5733"
       stroke-width="0.7 px"
       style="stroke-width:0.2;stroke-miterlimit:4;stroke-dasharray:none;stroke-linecap:square;fill:none;fill-opacity:1;fill-rule:evenodd" />
    <path
       id="Unfold_Sketch_Internal_w0019"
       d="M 14.400000000000032 90.92743338823082 L 14.400000000000032 88.72743338823082 L 26.60000000000001 88.72743338823082 L 26.60000000000001 90.92743338823082 L 14.400000000000032 90.92743338823082 "
       stroke="#ff5733"
       stroke-width="0.7 px"
       style="stroke-width:0.2;stroke-miterlimit:4;stroke-dasharray:none;stroke-linecap:square;fill:none;fill-opacity:1;fill-rule:evenodd" />
    <path
       id="Unfold_Sketch_Internal_w0020"
       d="M -26.60000000000001 90.92743338823082 L -26.60000000000001 88.72743338823082 L -14.400000000000032 88.72743338823082 L -14.400000000000032 90.92743338823082 L -26.60000000000001 90.92743338823082 "
       stroke="#ff5733"
       stroke-width="0.7 px"
       style="stroke-width:0.2;stroke-miterlimit:4;stroke-dasharray:none;stroke-linecap:square;fill:none;fill-opacity:1;fill-rule:evenodd" />
    <path
       id="Unfold_Sketch_Internal_w0021"
       d="M 35.9 83.9274333883897 L 35.9 71.72743338838973 L 38.1 71.72743338838973 L 38.1 83.9274333883897 L 35.9 83.9274333883897 "
       stroke="#ff5733"
       stroke-width="0.7 px"
       style="stroke-width:0.2;stroke-miterlimit:4;stroke-dasharray:none;stroke-linecap:square;fill:none;fill-opacity:1;fill-rule:evenodd" />
    <path
       id="Unfold_Sketch_Internal_w0022"
       d="M 26.60000000000001 -88.72743338823085 L 14.400000000000032 -88.72743338823085 L 14.400000000000032 -90.92743338823081 L 26.60000000000001 -90.92743338823081 L 26.60000000000001 -88.72743338823085 "
       stroke="#ff5733"
       stroke-width="0.7 px"
       style="stroke-width:0.2;stroke-miterlimit:4;stroke-dasharray:none;stroke-linecap:square;fill:none;fill-opacity:1;fill-rule:evenodd" />
    <path
       id="Unfold_Sketch_Internal_w0023"
       d="M 2.8999999999999893 8.619999999996182 L 5.099999999990001 8.619999999996182 L 5.099999999990001 20.81999999999618 L 2.8999999999999893 20.81999999999618 L 2.8999999999999893 8.619999999996182 "
       stroke="#ff5733"
       stroke-width="0.7 px"
       style="stroke-width:0.2;stroke-miterlimit:4;stroke-dasharray:none;stroke-linecap:square;fill:none;fill-opacity:1;fill-rule:evenodd" />
    <path
       id="Unfold_Sketch_Internal_w0024"
       d="M -5.099999999990001 -20.81999999999618 L -2.8999999999999893 -20.81999999999618 L -2.8999999999999893 -8.619999999996182 L -5.099999999990001 -8.619999999996182 L -5.099999999990001 -20.81999999999618 "
       stroke="#ff5733"
       stroke-width="0.7 px"
       style="stroke-width:0.2;stroke-miterlimit:4;stroke-dasharray:none;stroke-linecap:square;fill:none;fill-opacity:1;fill-rule:evenodd" />
    <path
       id="Unfold_Sketch_Internal_w0025"
       d="M 2.89999999997502 38.0599999999949 L 5.099999999994996 38.0599999999949 L 5.099999999994996 50.25999999998854 L 2.89999999997502 50.25999999998854 L 2.89999999997502 38.0599999999949 "
       stroke="#ff5733"
       stroke-width="0.7 px"
       style="stroke-width:0.2;stroke-miterlimit:4;stroke-dasharray:none;stroke-linecap:square;fill:none;fill-opacity:1;fill-rule:evenodd" />
    <circle
       cx="0.0"
       cy="-91.82743338823082"
       r="4.25"
       stroke="#ff5733"
       stroke-width="0.7 px"
       style="stroke-width:0.2;stroke-miterlimit:4;stroke-dasharray:none;stroke-linecap:square;fill:none"
       id="circle1" />
    <circle
       cx="0.0"
       cy="91.82743338823079"
       r="4.25"
       stroke="#ff5733"
       stroke-width="0.7 px"
       style="stroke-width:0.2;stroke-miterlimit:4;stroke-dasharray:none;stroke-linecap:square;fill:none"
       id="circle2" />
    <path
       id="Unfold_Sketch_Internal_w0028"
       d="M 100.9823001646836 49.95000000000007 L 105.9823001646836 49.95000000000007 A 2.5 2.5 0 0 1 108.482 52.45L 108.4823001646836 54.45000000000007 A 2.5 2.5 0 0 1 105.982 56.95L 100.9823001646836 56.95000000000007 L 100.9823001646836 56.45000000000007 L 105.9823001646836 56.45000000000007 A 2 2 0 0 0 107.982 54.45L 107.9823001646836 52.45000000000007 A 2 2 0 0 0 105.982 50.45L 100.9823001646836 50.45000000004924 L 100.9823001646836 49.95000000000007 "
       stroke="#ff5733"
       stroke-width="0.7 px"
       style="stroke-width:0.2;stroke-miterlimit:4;stroke-dasharray:none;stroke-linecap:square;fill:none;fill-opacity:1;fill-rule:evenodd" />
    <path
       id="Unfold_Sketch_Internal_w0029"
       d="M -105.98230016468429 56.94999999999993 A 2.5 2.5 0 0 1 -108.482 54.45L -108.48230016468433 52.44999999999994 A 2.5 2.5 0 0 1 -105.982 49.95L -100.98230016468433 49.94999999999994 L -100.98230016469314 50.44999999999994 L -105.98231419043661 50.45000000004911 A 2 2 0 0 0 -107.982 52.45L -107.98230016468433 54.449999999999925 A 2 2 0 0 0 -105.982 56.45L -100.98230016468433 56.44999999999994 L -100.98230016469314 56.94999999999994 L -105.98230016468432 56.94999999999993 "
       stroke="#ff5733"
       stroke-width="0.7 px"
       style="stroke-width:0.2;stroke-miterlimit:4;stroke-dasharray:none;stroke-linecap:square;fill:none;fill-opacity:1;fill-rule:evenodd" />
    <path
       id="Unfold_Sketch_Internal_w0030"
       d="M -2.572884660692877e-09 62.827433388230766 A 2.9 2.9 0 0 1 2.9 65.7274A 2.9 2.9 0 1 1 -2.57288e-09 62.8274"
       stroke="#ff5733"
       stroke-width="0.7 px"
       style="stroke-width:0.2;stroke-miterlimit:4;stroke-dasharray:none;stroke-linecap:square;fill:none;fill-opacity:1;fill-rule:evenodd" />
    <path
       id="Unfold_Sketch_Internal_w0031"
       d="M 3.818197312019284e-10 -62.82743338823081 A 2.9 2.9 0 0 1 -2.9 -65.7274A 2.9 2.9 0 1 1 3.8182e-10 -62.8274"
       stroke="#ff5733"
       stroke-width="0.7 px"
       style="stroke-width:0.2;stroke-miterlimit:4;stroke-dasharray:none;stroke-linecap:square;fill:none;fill-opacity:1;fill-rule:evenodd" />
    <circle
       cx="-93.48230016469724"
       cy="-14.999999999970656"
       r="0.75"
       stroke="#ff5733"
       stroke-width="0.7 px"
       style="stroke-width:0.2;stroke-miterlimit:4;stroke-dasharray:none;stroke-linecap:square;fill:none"
       id="circle3" />
    <circle
       cx="93.48230016469654"
       cy="-14.99999999997049"
       r="0.75"
       stroke="#ff5733"
       stroke-width="0.7 px"
       style="stroke-width:0.2;stroke-miterlimit:4;stroke-dasharray:none;stroke-linecap:square;fill:none"
       id="circle4" />
    <circle
       cx="115.48230016469277"
       cy="36.0"
       r="0.65"
       stroke="#ff5733"
       stroke-width="0.7 px"
       style="stroke-width:0.2;stroke-miterlimit:4;stroke-dasharray:none;stroke-linecap:square;fill:none"
       id="circle5" />
    <circle
       cx="115.48230016469277"
       cy="-36.0"
       r="0.65"
       stroke="#ff5733"
       stroke-width="0.7 px"
       style="stroke-width:0.2;stroke-miterlimit:4;stroke-dasharray:none;stroke-linecap:square;fill:none"
       id="circle6" />
    <circle
       cx="-115.48230016469279"
       cy="-36.0"
       r="0.65"
       stroke="#ff5733"
       stroke-width="0.7 px"
       style="stroke-width:0.2;stroke-miterlimit:4;stroke-dasharray:none;stroke-linecap:square;fill:none"
       id="circle7" />
    <circle
       cx="-115.48230016469279"
       cy="36.0"
       r="0.65"
       stroke="#ff5733"
       stroke-width="0.7 px"
       style="stroke-width:0.2;stroke-miterlimit:4;stroke-dasharray:none;stroke-linecap:square;fill:none"
       id="circle8" />
    <circle
       cx="44.82743338823081"
       cy="36.0"
       r="0.65"
       stroke="#ff5733"
       stroke-width="0.7 px"
       style="stroke-width:0.2;stroke-miterlimit:4;stroke-dasharray:none;stroke-linecap:square;fill:none"
       id="circle9" />
    <circle
       cx="44.82743338823081"
       cy="-36.0"
       r="0.65"
       stroke="#ff5733"
       stroke-width="0.7 px"
       style="stroke-width:0.2;stroke-miterlimit:4;stroke-dasharray:none;stroke-linecap:square;fill:none"
       id="circle10" />
    <circle
       cx="-44.82743338823081"
       cy="36.0"
       r="0.65"
       stroke="#ff5733"
       stroke-width="0.7 px"
       style="stroke-width:0.2;stroke-miterlimit:4;stroke-dasharray:none;stroke-linecap:square;fill:none"
       id="circle11" />
    <circle
       cx="-44.82743338823081"
       cy="-36.0"
       r="0.65"
       stroke="#ff5733"
       stroke-width="0.7 px"
       style="stroke-width:0.2;stroke-miterlimit:4;stroke-dasharray:none;stroke-linecap:square;fill:none"
       id="circle12" />
    <title
       id="title12">b'Unfold_Sketch_Internal'</title>
  </g>
  <g
     id="Unfold_Sketch_Bends"
     transform="scale(1,-1)"
     style="stroke-width:0.2;stroke-dasharray:none">
    <path
       id="Unfold_Sketch_Bends_w0000"
       d="M 96.06858347057732 -60.0 L 96.06858347057732 -20.0 "
       stroke="#c00000"
       stroke-width="0.7 px"
       style="stroke-width:0.2;stroke-miterlimit:4;stroke-dasharray:none;stroke-linecap:square;fill:none;fill-opacity:1;fill-rule:evenodd" />
    <path
       id="Unfold_Sketch_Bends_w0001"
       d="M 96.06858347057704 -10.0 L 96.06858347057704 60.0 "
       stroke="#c00000"
       stroke-width="0.7 px"
       style="stroke-width:0.2;stroke-miterlimit:4;stroke-dasharray:none;stroke-linecap:square;fill:none;fill-opacity:1;fill-rule:evenodd" />
    <path
       id="Unfold_Sketch_Bends_w0002"
       d="M 64.24115008234622 -60.0 L 64.24115008234622 60.0 "
       stroke="#c00000"
       stroke-width="0.7 px"
       style="stroke-width:0.2;stroke-miterlimit:4;stroke-dasharray:none;stroke-linecap:square;fill:none;fill-opacity:1;fill-rule:evenodd" />
    <path
       id="Unfold_Sketch_Bends_w0003"
       d="M 36.41371669411541 -60.0 L 36.41371669411541 60.0 "
       stroke="#c00000"
       stroke-width="0.7 px"
       style="stroke-width:0.2;stroke-miterlimit:4;stroke-dasharray:none;stroke-linecap:square;fill:none;fill-opacity:1;fill-rule:evenodd" />
    <path
       id="Unfold_Sketch_Bends_w0004"
       d="M 35.0 -61.41371669411541 L -35.0 -61.41371669411541 "
       stroke="#c00000"
       stroke-width="0.7 px"
       style="stroke-width:0.2;stroke-miterlimit:4;stroke-dasharray:none;stroke-linecap:square;fill:none;fill-opacity:1;fill-rule:evenodd" />
    <path
       id="Unfold_Sketch_Bends_w0005"
       d="M 35.0 61.41371669411541 L -35.0 61.41371669411541 "
       stroke="#c00000"
       stroke-width="0.7 px"
       style="stroke-width:0.2;stroke-miterlimit:4;stroke-dasharray:none;stroke-linecap:square;fill:none;fill-opacity:1;fill-rule:evenodd" />
    <path
       id="Unfold_Sketch_Bends_w0006"
       d="M -96.06858347057738 -9.999999999941425 L -96.06858347057738 60.0 "
       stroke="#c00000"
       stroke-width="0.7 px"
       style="stroke-width:0.2;stroke-miterlimit:4;stroke-dasharray:none;stroke-linecap:square;fill:none;fill-opacity:1;fill-rule:evenodd" />
    <path
       id="Unfold_Sketch_Bends_w0007"
       d="M -96.06858347057704 -60.0 L -96.06858347057704 -20.0 "
       stroke="#c00000"
       stroke-width="0.7 px"
       style="stroke-width:0.2;stroke-miterlimit:4;stroke-dasharray:none;stroke-linecap:square;fill:none;fill-opacity:1;fill-rule:evenodd" />
    <path
       id="Unfold_Sketch_Bends_w0008"
       d="M -64.24115008234622 -60.0 L -64.24115008234622 60.0 "
       stroke="#c00000"
       stroke-width="0.7 px"
       style="stroke-width:0.2;stroke-miterlimit:4;stroke-dasharray:none;stroke-linecap:square;fill:none;fill-opacity:1;fill-rule:evenodd" />
    <path
       id="Unfold_Sketch_Bends_w0009"
       d="M -36.41371669411541 -60.0 L -36.41371669411541 60.0 "
       stroke="#c00000"
       stroke-width="0.7 px"
       style="stroke-width:0.2;stroke-miterlimit:4;stroke-dasharray:none;stroke-linecap:square;fill:none;fill-opacity:1;fill-rule:evenodd" />
    <title
       id="title13">b'Unfold_Sketch_Bends'</title>
  </g>
</svg>
