<?xml version="1.0"?>
<!DOCTYPE svg PUBLIC "-//W3C//DTD SVG 1.1//EN" "http://www.w3.org/Graphics/SVG/1.1/DTD/svg11.dtd">
<svg width="315.76460032938485mm" height="225.65486677646163mm" viewBox="-157.882300 -112.827433 315.764600 225.654867" xmlns="http://www.w3.org/2000/svg" version="1.1">
<g id="Unfold_Sketch001" transform="scale(1,-1)">
<path id="Unfold_Sketch001_w0000"  d="M -129.48230016469245 -78.2 L -129.48230016469245 -78.5 L -131.38230016469245 -80.4 L -143.58230016469247 -80.4 L -145.48230016469245 -78.5 L -145.48230016469245 -78.2 L -143.48230016469245 -78.2 L -143.48230016469245 -75.0 L -152.98230016469245 -75.0 L -152.98230016469245 -54.659999999983526 L -155.6823001646924 -54.659999999983526 L -155.6823001646924 -56.659999999983526 L -155.98230016469242 -56.659999999983526 L -157.88230016469242 -54.75999999998353 L -157.88230016469242 -42.559999999983525 L -155.98230016469242 -40.659999999983526 L -155.6823001646924 -40.659999999983526 L -155.6823001646924 -42.65999999998352 L -152.98230016469242 -42.659999999983526 L -152.98230016469245 -22.219999999986896 L -155.6823001646924 -22.219999999986896 L -155.6823001646924 -24.219999999986896 L -155.98230016469242 -24.219999999986896 L -157.88230016469242 -22.319999999986898 L -157.88230016469242 -10.119999999986897 L -155.98230016469242 -8.219999999986896 L -155.6823001646924 -8.219999999986896 L -155.6823001646924 -10.219999999986895 L -152.98230016469242 -10.219999999986896 L -152.98230016469245 10.219999999986896 L -155.6823001646924 10.219999999986896 L -155.6823001646924 8.219999999986896 L -155.98230016469242 8.219999999986896 L -157.88230016469242 10.119999999986895 L -157.88230016469242 22.3199999999869 L -155.98230016469242 24.2199999999869 L -155.6823001646924 24.219999999986896 L -155.6823001646924 22.219999999986896 L -152.98230016469242 22.219999999986896 L -152.98230016469245 42.659999999972115 L -155.6823001646924 42.65999999997213 L -155.6823001646924 40.65999999997212 L -155.98230016469242 40.65999999997212 L -157.88230016469245 42.55999999997212 L -157.88230016469242 54.75999999997213 L -155.98230016469245 56.65999999997213 L -155.6823001646924 56.65999999997212 L -155.6823001646924 54.659999999972136 L -152.98230016469242 54.65999999997212 L -152.98230016469245 75.0 L -143.48230016469256 75.0 L -143.48230016469256 78.19999999999999 L -145.48230016469256 78.19999999999999 L -145.48230016469253 78.5 L -143.58230016469255 80.4 L -131.38230016469254 80.39999999999999 L -129.48230016469256 78.49999999999999 L -129.48230016469256 78.19999999999999 L -131.48230016469256 78.19999999999999 L -131.48230016469256 74.99999999999999 L -108.65486677646096 75.0 L -108.65486677646095 78.19999999999999 L -110.65486677646095 78.19999999999999 L -110.65486677646096 78.49999999999999 L -108.75486677646097 80.39999999999999 L -96.55486677646095 80.39999999999999 L -94.65486677646095 78.49999999999999 L -94.65486677646095 78.19999999999999 L -96.65486677646095 78.19999999999999 L -96.65486677646095 74.99999999999999 L -73.8274333882308 75.0 L -73.8274333882308 78.2 L -75.8274333882308 78.20000000000002 L -75.8274333882308 78.50000000000001 L -73.92743338823081 80.40000000000002 L -61.72743338823079 80.40000000000002 L -59.827433388230794 78.50000000000001 L -59.8274333882308 78.20000000000002 L -61.8274333882308 78.20000000000002 L -61.8274333882308 74.99999999999999 L -50.0 75.0 L -50.0 78.82743338823082 L -58.0 78.82743338823082 L -58.0 111.82743338823082 L -50.0 111.82743338823082 L -50.0 112.82743338823082 L 50.0 112.82743338823082 L 50.0 111.82743338823082 L 58.0 111.82743338823082 L 58.0 78.82743338823082 L 50.0 78.82743338823082 L 50.0 75.0 L 61.82743338823081 75.0 L 61.827433388230816 78.19999999999999 L 59.827433388230816 78.19999999999999 L 59.8274333882308 78.5 L 61.72743338823081 80.4 L 73.92743338823081 80.39999999999999 L 75.82743338823082 78.49999999999999 L 75.82743338823082 78.19999999999999 L 73.82743338823082 78.19999999999999 L 73.82743338823082 74.99999999999999 L 77.82743338823083 75.0 L 80.65486677646163 75.00000000000001 L 96.65486677646258 75.0 L 96.6548667764626 78.2 L 94.6548667764626 78.20000000000002 L 94.6548667764626 78.50000000000001 L 96.5548667764626 80.40000000000002 L 108.7548667764626 80.40000000000002 L 110.6548667764626 78.50000000000001 L 110.6548667764626 78.20000000000002 L 108.6548667764626 78.20000000000002 L 108.6548667764626 74.99999999999999 L 124.65486677646163 75.0 L 127.48230016469242 75.0 L 131.48230016469256 75.0 L 131.48230016469253 78.2 L 129.48230016469253 78.20000000000002 L 129.48230016469253 78.50000000000001 L 131.38230016469254 80.40000000000002 L 143.58230016469253 80.40000000000002 L 145.48230016469256 78.50000000000001 L 145.48230016469253 78.20000000000002 L 143.48230016469253 78.20000000000002 L 143.48230016469253 74.99999999999999 L 152.98230016469245 75.0 L 152.98230016469245 54.659999999972115 L 155.68230016469244 54.65999999997213 L 155.68230016469244 56.65999999997212 L 155.98230016469245 56.65999999997213 L 157.88230016469242 54.75999999997212 L 157.88230016469242 42.55999999997212 L 155.98230016469245 40.65999999997212 L 155.68230016469244 40.65999999997212 L 155.68230016469244 42.65999999997213 L 152.98230016469242 42.65999999997212 L 152.98230016469245 22.219999999986896 L 155.68230016469244 22.219999999986896 L 155.68230016469244 24.219999999986893 L 155.98230016469245 24.219999999986893 L 157.88230016469242 22.31999999998689 L 157.88230016469242 10.119999999986895 L 155.98230016469242 8.219999999986895 L 155.68230016469244 8.219999999986895 L 155.68230016469244 10.219999999986898 L 152.98230016469242 10.219999999986895 L 152.98230016469245 -10.219999999986896 L 155.68230016469244 -10.219999999986891 L 155.68230016469244 -8.219999999986895 L 155.98230016469245 -8.219999999986895 L 157.88230016469242 -10.119999999986895 L 157.88230016469242 -22.31999999998689 L 155.98230016469242 -24.21999999998689 L 155.68230016469244 -24.219999999986893 L 155.68230016469244 -22.21999999998689 L 152.98230016469242 -22.219999999986893 L 152.98230016469245 -42.65999999998354 L 155.68230016469244 -42.65999999998354 L 155.68230016469244 -40.65999999998354 L 155.98230016469245 -40.65999999998354 L 157.88230016469242 -42.55999999998354 L 157.88230016469242 -54.75999999998354 L 155.98230016469242 -56.65999999998354 L 155.68230016469244 -56.65999999998354 L 155.68230016469244 -54.65999999998354 L 152.98230016469242 -54.65999999998354 L 152.98230016469245 -75.0 L 143.48230016469245 -75.0 L 143.48230016469245 -78.2 L 145.48230016469245 -78.2 L 145.48230016469245 -78.5 L 143.58230016469247 -80.4 L 131.38230016469245 -80.4 L 129.48230016469245 -78.5 L 129.48230016469245 -78.2 L 131.48230016469245 -78.2 L 131.48230016469245 -75.0 L 127.48230016469243 -75.0 L 124.65486677646165 -74.99999999999999 L 108.65486677646163 -75.0 L 108.65486677646163 -78.2 L 110.65486677646163 -78.2 L 110.65486677646163 -78.5 L 108.75486677646165 -80.4 L 96.55486677646164 -80.4 L 94.65486677646163 -78.5 L 94.65486677646163 -78.2 L 96.65486677646163 -78.2 L 96.65486677646163 -75.0 L 80.65486677646163 -75.0 L 77.82743338823083 -75.0 L 73.82743338823083 -75.0 L 73.82743338823083 -78.2 L 75.82743338823083 -78.2 L 75.82743338823083 -78.5 L 73.92743338823084 -80.4 L 61.727433388230835 -80.4 L 59.82743338823083 -78.5 L 59.82743338823083 -78.2 L 61.82743338823083 -78.2 L 61.82743338823083 -75.0 L 50.0 -75.0 L 50.0 -78.82743338823082 L 58.0 -78.82743338823082 L 58.0 -111.82743338823082 L 50.0 -111.82743338823082 L 50.0 -112.82743338823082 L -50.0 -112.82743338823082 L -50.0 -111.82743338823082 L -58.0 -111.82743338823082 L -58.0 -78.82743338823082 L -50.0 -78.82743338823082 L -50.0 -75.0 L -61.827433388230816 -75.0 L -61.827433388230816 -78.2 L -59.827433388230816 -78.2 L -59.827433388230816 -78.5 L -61.72743338823081 -80.4 L -73.92743338823081 -80.4 L -75.82743338823082 -78.5 L -75.82743338823082 -78.2 L -73.82743338823082 -78.2 L -73.82743338823082 -75.0 L -96.65486677646165 -75.0 L -96.65486677646165 -78.2 L -94.65486677646165 -78.2 L -94.65486677646166 -78.5 L -96.55486677646165 -80.4 L -108.75486677646164 -80.4 L -110.65486677646163 -78.5 L -110.65486677646165 -78.2 L -108.65486677646165 -78.2 L -108.65486677646165 -75.0 L -131.48230016469245 -75.0 L -131.48230016469245 -78.2 L -129.48230016469245 -78.2 " stroke="#000080" stroke-width="0.7 px" style="stroke-width:0.7;stroke-miterlimit:4;stroke-dasharray:none;stroke-linecap:square;fill:none;fill-opacity:1;fill-rule: evenodd"/>
<path id="Unfold_Sketch001_w0001"  d="M 5.100000000000005 98.92743338823081 L 2.899999999999999 98.92743338823081 L 2.899999999999999 86.72743338823062 L 5.100000000000005 86.72743338823062 L 5.100000000000005 98.92743338823081 " stroke="#000080" stroke-width="0.7 px" style="stroke-width:0.7;stroke-miterlimit:4;stroke-dasharray:none;stroke-linecap:square;fill:none;fill-opacity:1;fill-rule: evenodd"/>
<path id="Unfold_Sketch001_w0002"  d="M -2.899999999999999 98.92743338823081 L -5.100000000000001 98.92743338823081 L -5.100000000000001 86.72743338823062 L -2.899999999999999 86.72743338823062 L -2.899999999999999 98.92743338823081 " stroke="#000080" stroke-width="0.7 px" style="stroke-width:0.7;stroke-miterlimit:4;stroke-dasharray:none;stroke-linecap:square;fill:none;fill-opacity:1;fill-rule: evenodd"/>
<path id="Unfold_Sketch001_w0003"  d="M 5.1 -98.92743338823085 L 5.1 -86.72743338823065 L 2.9 -86.72743338823065 L 2.9 -98.92743338823085 L 5.1 -98.92743338823085 " stroke="#000080" stroke-width="0.7 px" style="stroke-width:0.7;stroke-miterlimit:4;stroke-dasharray:none;stroke-linecap:square;fill:none;fill-opacity:1;fill-rule: evenodd"/>
<path id="Unfold_Sketch001_w0004"  d="M -5.1 -86.72743338823065 L -5.1 -98.92743338823085 L -2.9 -98.92743338823085 L -2.9 -86.72743338823065 L -5.1 -86.72743338823065 " stroke="#000080" stroke-width="0.7 px" style="stroke-width:0.7;stroke-miterlimit:4;stroke-dasharray:none;stroke-linecap:square;fill:none;fill-opacity:1;fill-rule: evenodd"/>
<path id="Unfold_Sketch001_w0005"  d="M -50.9 98.92743338823081 L -53.1 98.92743338823081 L -53.1 86.72743338823082 L -50.9 86.72743338823082 L -50.9 98.92743338823081 " stroke="#000080" stroke-width="0.7 px" style="stroke-width:0.7;stroke-miterlimit:4;stroke-dasharray:none;stroke-linecap:square;fill:none;fill-opacity:1;fill-rule: evenodd"/>
<path id="Unfold_Sketch001_w0006"  d="M 53.10000000000001 -86.72743338823085 L 50.900000000000006 -86.72743338823085 L 50.900000000000006 -98.92743338823085 L 53.10000000000001 -98.92743338823085 L 53.10000000000001 -86.72743338823085 " stroke="#000080" stroke-width="0.7 px" style="stroke-width:0.7;stroke-miterlimit:4;stroke-dasharray:none;stroke-linecap:square;fill:none;fill-opacity:1;fill-rule: evenodd"/>
<path id="Unfold_Sketch001_w0007"  d="M -50.900000000000006 -98.92743338823085 L -50.900000000000006 -86.72743338823085 L -53.10000000000001 -86.72743338823085 L -53.10000000000001 -98.92743338823085 L -50.900000000000006 -98.92743338823085 " stroke="#000080" stroke-width="0.7 px" style="stroke-width:0.7;stroke-miterlimit:4;stroke-dasharray:none;stroke-linecap:square;fill:none;fill-opacity:1;fill-rule: evenodd"/>
<path id="Unfold_Sketch001_w0008"  d="M -5.0999999999999925 -22.319999999986894 L -2.899999999999993 -22.319999999986894 L -2.899999999999993 -10.119999999986895 L -5.0999999999999925 -10.119999999986895 L -5.0999999999999925 -22.319999999986894 " stroke="#000080" stroke-width="0.7 px" style="stroke-width:0.7;stroke-miterlimit:4;stroke-dasharray:none;stroke-linecap:square;fill:none;fill-opacity:1;fill-rule: evenodd"/>
<path id="Unfold_Sketch001_w0009"  d="M 2.899999999999993 10.119999999986895 L 5.099999999999993 10.119999999986895 L 5.099999999999993 22.319999999986894 L 2.899999999999993 22.319999999986894 L 2.899999999999993 10.119999999986895 " stroke="#000080" stroke-width="0.7 px" style="stroke-width:0.7;stroke-miterlimit:4;stroke-dasharray:none;stroke-linecap:square;fill:none;fill-opacity:1;fill-rule: evenodd"/>
<path id="Unfold_Sketch001_w0010"  d="M -5.099999999999993 10.119999999986895 L -2.899999999999993 10.119999999986895 L -2.899999999999993 22.319999999986894 L -5.099999999999993 22.319999999986894 L -5.099999999999993 10.119999999986895 " stroke="#000080" stroke-width="0.7 px" style="stroke-width:0.7;stroke-miterlimit:4;stroke-dasharray:none;stroke-linecap:square;fill:none;fill-opacity:1;fill-rule: evenodd"/>
<path id="Unfold_Sketch001_w0011"  d="M 2.899999999999993 -22.319999999986894 L 5.0999999999999925 -22.319999999986894 L 5.0999999999999925 -10.119999999986895 L 2.899999999999993 -10.119999999986895 L 2.899999999999993 -22.319999999986894 " stroke="#000080" stroke-width="0.7 px" style="stroke-width:0.7;stroke-miterlimit:4;stroke-dasharray:none;stroke-linecap:square;fill:none;fill-opacity:1;fill-rule: evenodd"/>
<path id="Unfold_Sketch001_w0012"  d="M -21.900000000000002 -103.72743338823086 L -34.1 -103.72743338823086 L -34.1 -105.92743338823087 L -21.900000000000002 -105.92743338823087 L -21.900000000000002 -103.72743338823086 " stroke="#000080" stroke-width="0.7 px" style="stroke-width:0.7;stroke-miterlimit:4;stroke-dasharray:none;stroke-linecap:square;fill:none;fill-opacity:1;fill-rule: evenodd"/>
<path id="Unfold_Sketch001_w0013"  d="M 34.09999999999998 -93.42743338823081 L 34.09999999999998 -91.22743338823082 L 21.899999999999984 -91.22743338823082 L 21.899999999999984 -93.42743338823081 L 34.09999999999998 -93.42743338823081 " stroke="#000080" stroke-width="0.7 px" style="stroke-width:0.7;stroke-miterlimit:4;stroke-dasharray:none;stroke-linecap:square;fill:none;fill-opacity:1;fill-rule: evenodd"/>
<path id="Unfold_Sketch001_w0014"  d="M -5.0999999999999925 -54.759999999983535 L -2.899999999999993 -54.759999999983535 L -2.899999999999993 -42.55999999998354 L -5.0999999999999925 -42.55999999998354 L -5.0999999999999925 -54.759999999983535 " stroke="#000080" stroke-width="0.7 px" style="stroke-width:0.7;stroke-miterlimit:4;stroke-dasharray:none;stroke-linecap:square;fill:none;fill-opacity:1;fill-rule: evenodd"/>
<path id="Unfold_Sketch001_w0015"  d="M 34.09999999999998 91.22743338823076 L 34.09999999999998 93.42743338823077 L 21.899999999999984 93.42743338823077 L 21.899999999999984 91.22743338823076 L 34.09999999999998 91.22743338823076 " stroke="#000080" stroke-width="0.7 px" style="stroke-width:0.7;stroke-miterlimit:4;stroke-dasharray:none;stroke-linecap:square;fill:none;fill-opacity:1;fill-rule: evenodd"/>
<path id="Unfold_Sketch001_w0016"  d="M 2.899999999999993 -42.55999999998354 L 2.899999999999993 -54.759999999983535 L 5.0999999999999925 -54.759999999983535 L 5.0999999999999925 -42.55999999998354 L 2.899999999999993 -42.55999999998354 " stroke="#000080" stroke-width="0.7 px" style="stroke-width:0.7;stroke-miterlimit:4;stroke-dasharray:none;stroke-linecap:square;fill:none;fill-opacity:1;fill-rule: evenodd"/>
<path id="Unfold_Sketch001_w0017"  d="M 50.9 98.92743338823081 L 50.9 86.72743338823082 L 53.10000000000001 86.72743338823082 L 53.10000000000001 98.92743338823081 L 50.9 98.92743338823081 " stroke="#000080" stroke-width="0.7 px" style="stroke-width:0.7;stroke-miterlimit:4;stroke-dasharray:none;stroke-linecap:square;fill:none;fill-opacity:1;fill-rule: evenodd"/>
<path id="Unfold_Sketch001_w0018"  d="M 34.1 -103.72743338823086 L 21.900000000000002 -103.72743338823086 L 21.900000000000002 -105.92743338823081 L 34.1 -105.92743338823081 L 34.1 -103.72743338823086 " stroke="#000080" stroke-width="0.7 px" style="stroke-width:0.7;stroke-miterlimit:4;stroke-dasharray:none;stroke-linecap:square;fill:none;fill-opacity:1;fill-rule: evenodd"/>
<path id="Unfold_Sketch001_w0019"  d="M 21.9000000000001 105.92743338823082 L 21.9000000000001 103.72743338823082 L 34.099999999999895 103.72743338823082 L 34.099999999999895 105.92743338823082 L 21.9000000000001 105.92743338823082 " stroke="#000080" stroke-width="0.7 px" style="stroke-width:0.7;stroke-miterlimit:4;stroke-dasharray:none;stroke-linecap:square;fill:none;fill-opacity:1;fill-rule: evenodd"/>
<path id="Unfold_Sketch001_w0020"  d="M -34.099999999999895 105.92743338823082 L -34.099999999999895 103.72743338823082 L -21.9000000000001 103.72743338823082 L -21.9000000000001 105.92743338823082 L -34.099999999999895 105.92743338823082 " stroke="#000080" stroke-width="0.7 px" style="stroke-width:0.7;stroke-miterlimit:4;stroke-dasharray:none;stroke-linecap:square;fill:none;fill-opacity:1;fill-rule: evenodd"/>
<path id="Unfold_Sketch001_w0021"  d="M 2.899999999999993 42.55999999998354 L 5.0999999999999925 42.55999999998354 L 5.0999999999999925 54.75999999996069 L 2.899999999999993 54.75999999996069 L 2.899999999999993 42.55999999998354 " stroke="#000080" stroke-width="0.7 px" style="stroke-width:0.7;stroke-miterlimit:4;stroke-dasharray:none;stroke-linecap:square;fill:none;fill-opacity:1;fill-rule: evenodd"/>
<path id="Unfold_Sketch001_w0022"  d="M -5.0999999999999925 42.55999999998354 L -2.899999999999993 42.55999999998354 L -2.899999999999993 54.75999999996069 L -5.0999999999999925 54.75999999996069 L -5.0999999999999925 42.55999999998354 " stroke="#000080" stroke-width="0.7 px" style="stroke-width:0.7;stroke-miterlimit:4;stroke-dasharray:none;stroke-linecap:square;fill:none;fill-opacity:1;fill-rule: evenodd"/>
<path id="Unfold_Sketch001_w0023"  d="M -21.90000000002063 91.22743338823078 L -21.90000000002063 93.42743338823078 L -34.09999999997939 93.42743338823078 L -34.09999999997939 91.22743338823076 L -21.90000000002063 91.22743338823078 " stroke="#000080" stroke-width="0.7 px" style="stroke-width:0.7;stroke-miterlimit:4;stroke-dasharray:none;stroke-linecap:square;fill:none;fill-opacity:1;fill-rule: evenodd"/>
<path id="Unfold_Sketch001_w0024"  d="M -21.90000000002063 -93.42743338823082 L -21.90000000002063 -91.22743338823082 L -34.09999999997939 -91.22743338823082 L -34.09999999997939 -93.42743338823082 L -21.90000000002063 -93.42743338823082 " stroke="#000080" stroke-width="0.7 px" style="stroke-width:0.7;stroke-miterlimit:4;stroke-dasharray:none;stroke-linecap:square;fill:none;fill-opacity:1;fill-rule: evenodd"/>
<path id="Unfold_Sketch001_w0025"  d="M -135.98230016469236 71.95000000000009 A 2.5 2.5 0 0 1 -138.482 69.45L -138.48230016469236 67.45000000000009 A 2.5 2.5 0 0 1 -135.982 64.95L -130.98230016469236 64.95000000000009 L -130.98230016469242 65.45000000000002 L -135.9823109849171 65.45000000002935 A 2 2 0 0 0 -137.982 67.45L -137.98230016469236 69.45000000000007 A 2 2 0 0 0 -135.982 71.45L -130.98230016469236 71.45000000000009 L -130.98230016469242 71.95000000000009 L -135.98230016469236 71.95000000000009 " stroke="#000080" stroke-width="0.7 px" style="stroke-width:0.7;stroke-miterlimit:4;stroke-dasharray:none;stroke-linecap:square;fill:none;fill-opacity:1;fill-rule: evenodd"/>
<path id="Unfold_Sketch001_w0026"  d="M 130.9823001646924 64.95000000000003 L 135.9823001646924 64.95000000000003 A 2.5 2.5 0 0 1 138.482 67.45L 138.4823001646924 69.45000000000003 A 2.5 2.5 0 0 1 135.982 71.95L 130.9823001646924 71.95000000000003 L 130.9823001646924 71.45000000000003 L 135.9823001646924 71.45000000000003 A 2 2 0 0 0 137.982 69.45L 137.9823001646924 67.45000000000003 A 2 2 0 0 0 135.982 65.45L 130.9823001646924 65.45000000000003 L 130.9823001646924 64.95000000000003 " stroke="#000080" stroke-width="0.7 px" style="stroke-width:0.7;stroke-miterlimit:4;stroke-dasharray:none;stroke-linecap:square;fill:none;fill-opacity:1;fill-rule: evenodd"/>
<path id="Unfold_Sketch001_w0027"  d="M -3.2872399824598614e-08 -77.82743338823082 A 2.9 2.9 0 0 1 -2.9 -80.7274A 2.9 2.9 0 1 1 -3.28724e-08 -77.8274" stroke="#000080" stroke-width="0.7 px" style="stroke-width:0.7;stroke-miterlimit:4;stroke-dasharray:none;stroke-linecap:square;fill:none;fill-opacity:1;fill-rule: evenodd"/>
<path id="Unfold_Sketch001_w0028"  d="M -2.7472655243248215e-10 77.82743338823077 A 2.9 2.9 0 0 1 2.9 80.7274A 2.9 2.9 0 1 1 -2.74727e-10 77.8274" stroke="#000080" stroke-width="0.7 px" style="stroke-width:0.7;stroke-miterlimit:4;stroke-dasharray:none;stroke-linecap:square;fill:none;fill-opacity:1;fill-rule: evenodd"/>
<circle cx="0.0" cy="106.82743338823082" r="2.9" stroke="#000080" stroke-width="0.7 px" style="stroke-width:0.7;stroke-miterlimit:4;stroke-dasharray:none;stroke-linecap:square;fill:none"/>
<circle cx="0.0" cy="-106.82743338823082" r="2.9" stroke="#000080" stroke-width="0.7 px" style="stroke-width:0.7;stroke-miterlimit:4;stroke-dasharray:none;stroke-linecap:square;fill:none"/>
<circle cx="145.48230016469245" cy="45.0" r="0.65" stroke="#000080" stroke-width="0.7 px" style="stroke-width:0.7;stroke-miterlimit:4;stroke-dasharray:none;stroke-linecap:square;fill:none"/>
<circle cx="-145.48230016469245" cy="-45.0" r="0.65" stroke="#000080" stroke-width="0.7 px" style="stroke-width:0.7;stroke-miterlimit:4;stroke-dasharray:none;stroke-linecap:square;fill:none"/>
<circle cx="145.48230016469245" cy="-45.0" r="0.65" stroke="#000080" stroke-width="0.7 px" style="stroke-width:0.7;stroke-miterlimit:4;stroke-dasharray:none;stroke-linecap:square;fill:none"/>
<circle cx="-145.48230016469245" cy="45.0" r="0.65" stroke="#000080" stroke-width="0.7 px" style="stroke-width:0.7;stroke-miterlimit:4;stroke-dasharray:none;stroke-linecap:square;fill:none"/>
<circle cx="59.82743338823083" cy="45.0" r="0.65" stroke="#000080" stroke-width="0.7 px" style="stroke-width:0.7;stroke-miterlimit:4;stroke-dasharray:none;stroke-linecap:square;fill:none"/>
<circle cx="59.82743338823083" cy="-45.0" r="0.65" stroke="#000080" stroke-width="0.7 px" style="stroke-width:0.7;stroke-miterlimit:4;stroke-dasharray:none;stroke-linecap:square;fill:none"/>
<circle cx="-59.82743338823081" cy="45.0" r="0.65" stroke="#000080" stroke-width="0.7 px" style="stroke-width:0.7;stroke-miterlimit:4;stroke-dasharray:none;stroke-linecap:square;fill:none"/>
<circle cx="-59.82743338823081" cy="-45.0" r="0.65" stroke="#000080" stroke-width="0.7 px" style="stroke-width:0.7;stroke-miterlimit:4;stroke-dasharray:none;stroke-linecap:square;fill:none"/>
<path id="Unfold_Sketch001_w0039"  d="M 126.06858347057705 -75.0 L 126.06858347057705 75.0 " stroke="#000080" stroke-width="0.7 px" style="stroke-width:0.7;stroke-miterlimit:4;stroke-dasharray:none;stroke-linecap:square;fill:none;fill-opacity:1;fill-rule: evenodd"/>
<path id="Unfold_Sketch001_w0040"  d="M 79.24115008234624 -75.0 L 79.24115008234624 75.0 " stroke="#000080" stroke-width="0.7 px" style="stroke-width:0.7;stroke-miterlimit:4;stroke-dasharray:none;stroke-linecap:square;fill:none;fill-opacity:1;fill-rule: evenodd"/>
<path id="Unfold_Sketch001_w0041"  d="M 51.41371669411541 -75.0 L 51.41371669411541 75.0 " stroke="#000080" stroke-width="0.7 px" style="stroke-width:0.7;stroke-miterlimit:4;stroke-dasharray:none;stroke-linecap:square;fill:none;fill-opacity:1;fill-rule: evenodd"/>
<path id="Unfold_Sketch001_w0042"  d="M 50.0 -76.41371669411541 L -50.0 -76.41371669411541 " stroke="#000080" stroke-width="0.7 px" style="stroke-width:0.7;stroke-miterlimit:4;stroke-dasharray:none;stroke-linecap:square;fill:none;fill-opacity:1;fill-rule: evenodd"/>
<path id="Unfold_Sketch001_w0043"  d="M 50.0 76.41371669411541 L -50.0 76.41371669411541 " stroke="#000080" stroke-width="0.7 px" style="stroke-width:0.7;stroke-miterlimit:4;stroke-dasharray:none;stroke-linecap:square;fill:none;fill-opacity:1;fill-rule: evenodd"/>
<path id="Unfold_Sketch001_w0044"  d="M -126.06858347057705 -75.0 L -126.06858347057705 75.0 " stroke="#000080" stroke-width="0.7 px" style="stroke-width:0.7;stroke-miterlimit:4;stroke-dasharray:none;stroke-linecap:square;fill:none;fill-opacity:1;fill-rule: evenodd"/>
<path id="Unfold_Sketch001_w0045"  d="M -79.24115008234622 -75.0 L -79.24115008234622 75.0 " stroke="#000080" stroke-width="0.7 px" style="stroke-width:0.7;stroke-miterlimit:4;stroke-dasharray:none;stroke-linecap:square;fill:none;fill-opacity:1;fill-rule: evenodd"/>
<path id="Unfold_Sketch001_w0046"  d="M -51.41371669411541 -75.0 L -51.41371669411541 75.0 " stroke="#000080" stroke-width="0.7 px" style="stroke-width:0.7;stroke-miterlimit:4;stroke-dasharray:none;stroke-linecap:square;fill:none;fill-opacity:1;fill-rule: evenodd"/>
<title>b'Unfold_Sketch001'</title>
</g>
</svg>